<?xml version="1.0" encoding="UTF-8"?>
<svg id="Layer_2" data-name="Layer 2" xmlns="http://www.w3.org/2000/svg" viewBox="0 0 49.13 49.13">
  <defs>
    <style>
      .cls-1 {
        fill: #0d4a7d;
      }

      .cls-2 {
        fill: #fff;
      }

      .cls-3 {
        fill: #f9f9f9;
      }

      .cls-4 {
        fill: #6acaeb;
      }
    </style>
  </defs>
  <g id="Layer_1-2" data-name="Layer 1">
    <g>
      <circle class="cls-4" cx="24.56" cy="24.56" r="24.56"/>
      <g>
        <g>
          <path class="cls-3" d="M17.15,19.35c0,.11.03.22.09.32l6.61,10.43c.11.17.3.28.5.28.2,0,.39-.1.51-.26l7.02-10.32c.19-.28.12-.65-.16-.84-.28-.19-.65-.12-.84.16l-6.51,9.57-6.12-9.65c-.18-.28-.55-.36-.83-.19-.18.11-.28.31-.28.51Z"/>
          <path class="cls-3" d="M17.15,19.35c0,.11.03.22.09.32l6.61,10.43c.11.17.3.28.5.28.2,0,.39-.1.51-.26l7.02-10.32c.19-.28.12-.65-.16-.84-.28-.19-.65-.12-.84.16l-6.51,9.57-6.12-9.65c-.18-.28-.55-.36-.83-.19-.18.11-.28.31-.28.51Z"/>
        </g>
        <path class="cls-1" d="M17.15,19.35c0,.11.03.22.09.32l6.61,10.43c.11.17.3.28.5.28.2,0,.39-.1.51-.26l7.02-10.32c.19-.28.12-.65-.16-.84-.28-.19-.65-.12-.84.16l-6.51,9.57-6.12-9.65c-.18-.28-.55-.36-.83-.19-.18.11-.28.31-.28.51Z"/>
      </g>
      <g>
        <g>
          <path class="cls-2" d="M17.15,19.35c0,.11.03.22.09.32l6.61,10.43c.11.17.3.28.5.28.2,0,.39-.1.51-.26l7.02-10.32c.19-.28.12-.65-.16-.84-.28-.19-.65-.12-.84.16l-6.51,9.57-6.12-9.65c-.18-.28-.55-.36-.83-.19-.18.11-.28.31-.28.51Z"/>
          <path class="cls-2" d="M17.15,19.35c0,.11.03.22.09.32l6.61,10.43c.11.17.3.28.5.28.2,0,.39-.1.51-.26l7.02-10.32c.19-.28.12-.65-.16-.84-.28-.19-.65-.12-.84.16l-6.51,9.57-6.12-9.65c-.18-.28-.55-.36-.83-.19-.18.11-.28.31-.28.51Z"/>
        </g>
        <path class="cls-2" d="M17.15,19.35c0,.11.03.22.09.32l6.61,10.43c.11.17.3.28.5.28.2,0,.39-.1.51-.26l7.02-10.32c.19-.28.12-.65-.16-.84-.28-.19-.65-.12-.84.16l-6.51,9.57-6.12-9.65c-.18-.28-.55-.36-.83-.19-.18.11-.28.31-.28.51Z"/>
      </g>
    </g>
  </g>
</svg>