<?xml version="1.0" encoding="UTF-8"?>
<svg id="Layer_2" data-name="Layer 2" xmlns="http://www.w3.org/2000/svg" viewBox="0 0 147.32 122.21">
  <defs>
    <style>
      .cls-1 {
        fill: #e62631;
      }

      .cls-2 {
        fill: #fff;
      }

      .cls-3 {
        fill: #bea362;
      }
    </style>
  </defs>
  <g id="Layer_1-2" data-name="Layer 1">
    <g>
      <path class="cls-2" d="M133.45,29.24h-20.99c1.5-2.62,2.62-5.62,3-8.25,0-1.5,1.12-9-3-15-2.62-3.37-6.37-5.25-11.25-6h-1.87c-2.62,0-6,.75-10.12,3.75-4.5-3-7.87-3.75-10.5-3.75h-1.87c-4.5.75-8.25,2.62-10.5,5.62-1.87.37-3.37,1.5-5.62,2.62-4.12-2.62-7.87-3.37-10.12-3.37h-1.87c-4.87.75-8.25,2.62-10.87,6-4.12,5.62-3.37,13.5-3,14.62,0,1.12.37,2.62.75,3.75H14.25c-7.87,0-14.25,6.37-14.25,13.87v65.23c0,7.5,6.37,13.87,14.25,13.87h119.21c7.5,0,13.87-6.37,13.87-13.87V43.11c0-7.5-6.37-13.87-13.87-13.87Z"/>
      <path class="cls-3" d="M14.25,32.24h22.49c.37,1.12,1.12,2.62,1.87,3.75H14.25c-4.12,0-7.5,3.37-7.5,7.12v65.23c0,3.75,3.37,7.12,7.5,7.12h119.21c3.75,0,7.12-3.37,7.12-7.12V43.11c0-3.75-3.37-7.12-7.12-7.12h-25.12c.75-1.12,1.87-2.62,2.62-3.75h22.49c6,0,10.87,4.87,10.87,10.87v65.23c0,6-4.87,10.87-10.87,10.87H14.25c-6.37,0-11.25-4.87-11.25-10.87V43.11c0-6,4.87-10.87,11.25-10.87Z"/>
      <path d="M67.48,95.97s-.37-.37-.37-.75c-.37-2.25,1.12-4.12,3.37-4.5.75-.37,1.87,0,2.62.75l-5.62,4.5ZM80.22,91.47c-1.87-4.12-5.25-6-9-6-5.25,0-10.12,4.87-10.12,10.5,0,4.5,4.12,9.75,10.12,9.75,3.37,0,5.25-1.5,7.12-3l-3.37-3.75c-1.12.75-1.87,1.5-3.37,1.5-.75,0-1.5-.37-1.87-.75l10.5-8.25ZM46.48,66.35c0-2.62,1.87-4.5,4.5-4.5s4.5,1.87,4.5,4.5-1.87,4.87-4.5,4.87-4.5-2.25-4.5-4.87ZM50.98,76.47c5.25,0,10.12-4.12,10.12-10.12,0-5.62-4.87-9.75-10.12-9.75-5.62,0-10.12,4.12-10.12,9.75,0,6,4.5,10.12,10.12,10.12ZM24.37,54.73h1.87c4.5,0,7.87,2.62,7.87,7.87,0,4.87-3.37,7.5-7.87,7.5h-1.87v-15.37ZM18.37,76.1h9c7.87,0,12.75-6,12.75-13.5,0-7.87-4.87-13.5-12.75-13.5h-9v26.99ZM88.47,66.73c0-2.62,1.87-4.5,4.5-4.5s4.5,1.87,4.5,4.5c0,2.25-1.87,4.5-4.5,4.5s-4.5-2.25-4.5-4.5ZM89.22,75.73h0c1.12.37,2.62.75,4.5.75,4.5,0,9.37-4.5,9.37-9.75,0-4.87-4.5-10.12-9.37-10.12-2.25,0-4.12.75-4.5,1.5l-.75-.75h-5.62s.37,1.12.37,1.87v21.74c0,.75-.37,2.25-.37,2.25h6.37v-7.5ZM67.48,66.73c0-2.62,1.87-4.5,4.5-4.5s4.5,1.87,4.5,4.5c0,2.25-1.87,4.5-4.5,4.5s-4.5-2.25-4.5-4.5ZM68.23,75.73h0c.75.75,2.62.75,4.5.75,4.5,0,9.37-4.5,9.37-9.75,0-4.87-4.5-10.12-9.37-10.12-2.25,0-3.75.75-4.5,1.5l-.75-.75h-5.62s.37,1.12.37,1.87v21.74c0,.75-.37,2.25-.37,2.25h6.37v-7.5ZM117.33,83.6c.37,0,1.12,0,1.12.75,0,.37-1.12.37-1.87.37h-.75v-1.12h1.5ZM117.71,85.47c.75,0,1.12-.37,1.12-1.5,0-.75-.75-1.12-1.5-1.12h-2.25v4.87h.75v-2.25h1.12l1.12,2.25h.75l-1.12-2.25ZM116.96,81.72c1.87,0,3.75,1.5,3.75,3.37,0,2.25-1.87,3.75-3.75,3.75s-3.75-1.5-3.75-3.75c0-1.87,1.87-3.37,3.75-3.37ZM116.96,89.6c2.25,0,4.5-1.87,4.5-4.5,0-2.25-2.25-4.12-4.5-4.12-2.62,0-4.5,1.87-4.5,4.12,0,2.62,1.87,4.5,4.5,4.5ZM100.09,100.09l9-13.87h-16.12v5.25h6l-8.25,13.5h17.99v-4.87h-8.62ZM81.35,104.97h6s-.37-1.12-.37-1.87v-7.87c0-2.25,1.12-3.37,3-3.37h1.5l.37-5.62c-1.5,0-4.5.37-4.87,1.12l-1.12-1.12h-4.5v18.74ZM109.84,66.73s-.37-.37-.37-.75c-.37-2.25,1.12-4.12,3.37-4.5.75,0,1.87.37,2.62.75l-5.62,4.5ZM122.58,62.23c-1.87-3.75-5.25-5.62-9-5.62-5.25,0-10.12,4.5-10.12,10.12,0,4.5,4.12,9.75,10.12,9.75,3.37,0,5.25-1.12,7.12-3l-3-3.75c-1.5.75-2.25,1.5-3.75,1.5-.75,0-1.5-.37-1.87-.75l10.5-8.25ZM47.98,78.72h-5.62s.37,1.5.37,2.25v22.12c0,.75-.37,1.87-.37,1.87h6v-11.25c0-1.12,1.12-2.62,3-2.62,1.5,0,2.62,1.5,2.62,2.62v11.25h6v-12c0-5.25-3-7.12-7.12-7.12-.75,0-3.75.75-4.5,1.87v-7.5c0-.75-.37-1.5-.37-1.5ZM123.33,49.86s.37.75.37,1.5v22.49c0,.75-.37,2.25-.37,2.25h6.37s-.37-1.5-.37-2.25v-22.87c0-.75-.37-1.12-.37-1.12h-5.62Z"/>
      <path d="M60.73,12c-6-4.87-10.5-4.5-11.62-4.12-14.25,1.5-11.62,17.24-11.62,17.24,1.12,12.37,23.24,28.87,23.24,28.87,0,0,22.12-16.49,23.24-28.87,0,0,2.62-15.74-11.25-17.24-1.12-.37-6-.75-12,4.12Z"/>
      <path class="cls-1" d="M109.84,7.87c-1.87-2.62-4.87-4.5-9-4.87h-1.5c-2.25,0-6,.75-10.12,4.12-4.5-3.37-8.25-4.12-10.5-4.12h-1.5c-4.12.37-7.12,2.25-9,4.87-3.75,5.25-2.62,12.37-2.62,12.75,1.12,12.37,22.49,28.49,23.24,29.24h.37c.75-.75,22.12-16.87,23.24-29.24,0-.37,1.5-7.5-2.62-12.75Z"/>
    </g>
  </g>
</svg>